<svg width="21" height="20" viewBox="0 0 21 20" fill="none" xmlns="http://www.w3.org/2000/svg">
<path d="M3 8.21167C3 7.35834 3.69176 6.66658 4.54508 6.66658V6.66658C5.13032 6.66658 5.66533 6.33593 5.92705 5.81248L6.61111 4.44436C6.61378 4.43902 6.61512 4.43634 6.61637 4.43387C6.95523 3.76081 7.64364 3.33535 8.39719 3.33326C8.39996 3.33325 8.40295 3.33325 8.40893 3.33325H12.5911C12.5971 3.33325 12.6 3.33325 12.6028 3.33326C13.3564 3.33535 14.0448 3.76081 14.3836 4.43387C14.3849 4.43634 14.3862 4.43902 14.3889 4.44436L15.0729 5.81248C15.3347 6.33593 15.8697 6.66658 16.4549 6.66658V6.66658C17.3082 6.66658 18 7.35834 18 8.21167V12.3809C18 13.5778 18 14.1763 17.8316 14.6574C17.5301 15.5192 16.8526 16.1967 15.9908 16.4982C15.5097 16.6666 14.9112 16.6666 13.7143 16.6666H7.28571C6.08876 16.6666 5.49028 16.6666 5.00916 16.4982C4.14742 16.1967 3.46989 15.5192 3.16835 14.6574C3 14.1763 3 13.5778 3 12.3809V8.21167Z" stroke="#53565A" stroke-width="1.5"/>
<path d="M13.0834 10.8333C13.0834 12.2601 11.9268 13.4167 10.5001 13.4167C9.07335 13.4167 7.91675 12.2601 7.91675 10.8333C7.91675 9.4066 9.07335 8.25 10.5001 8.25C11.9268 8.25 13.0834 9.4066 13.0834 10.8333Z" stroke="#53565A" stroke-width="1.5"/>
</svg>
