<svg width="16" height="17" viewBox="0 0 16 17" fill="none" xmlns="http://www.w3.org/2000/svg">
<g clip-path="url(#clip0_190_56)">
<path d="M3.33337 11.8333C3.33337 12.187 3.47385 12.5261 3.7239 12.7761C3.97395 13.0262 4.31309 13.1667 4.66671 13.1667C5.02033 13.1667 5.35947 13.0262 5.60952 12.7761C5.85956 12.5261 6.00004 12.187 6.00004 11.8333C6.00004 11.4797 5.85956 11.1406 5.60952 10.8905C5.35947 10.6405 5.02033 10.5 4.66671 10.5C4.31309 10.5 3.97395 10.6405 3.7239 10.8905C3.47385 11.1406 3.33337 11.4797 3.33337 11.8333Z" stroke="#4285F4" stroke-linecap="round" stroke-linejoin="round"/>
<path d="M10 11.8333C10 12.187 10.1405 12.5261 10.3905 12.7761C10.6406 13.0262 10.9797 13.1667 11.3333 13.1667C11.687 13.1667 12.0261 13.0262 12.2761 12.7761C12.5262 12.5261 12.6667 12.187 12.6667 11.8333C12.6667 11.4797 12.5262 11.1406 12.2761 10.8905C12.0261 10.6405 11.687 10.5 11.3333 10.5C10.9797 10.5 10.6406 10.6405 10.3905 10.8905C10.1405 11.1406 10 11.4797 10 11.8333Z" stroke="#4285F4" stroke-linecap="round" stroke-linejoin="round"/>
<path d="M3.33333 11.8333H2V4.49998C2 4.32317 2.07024 4.1536 2.19526 4.02858C2.32029 3.90355 2.48986 3.83331 2.66667 3.83331H8.66667V11.8333M6 11.8333H10M12.6667 11.8333H14V7.83331M14 7.83331H8.66667M14 7.83331L12 4.49998H8.66667" stroke="#4285F4" stroke-linecap="round" stroke-linejoin="round"/>
</g>
<defs>
<clipPath id="clip0_190_56">
<rect width="16" height="16" fill="white" transform="translate(0 0.5)"/>
</clipPath>
</defs>
</svg>
