<svg width="32" height="32" viewBox="0 0 32 32" fill="none" xmlns="http://www.w3.org/2000/svg">
<circle cx="16" cy="16" r="16" fill="#2F3030" fill-opacity="0.25"/>
<path d="M17.981 11.4894L12.5599 13.2964L12.5599 13.2964C11.5764 13.6242 11.0846 13.7882 10.8608 13.9378C9.67645 14.7298 9.67645 16.4709 10.8608 17.2629C11.0846 17.4126 11.5764 17.5765 12.5599 17.9043C12.7583 17.9705 12.8575 18.0035 12.9482 18.0442C13.3965 18.245 13.7552 18.6037 13.956 19.0519C13.9966 19.1427 14.0297 19.2419 14.0958 19.4403C14.4237 20.4238 14.5876 20.9155 14.7373 21.1394C15.5292 22.3237 17.2704 22.3237 18.0623 21.1394C18.212 20.9155 18.3759 20.4238 18.7038 19.4403L20.5108 14.0192C21.0627 12.3634 21.3387 11.5355 20.9017 11.0985C20.4647 10.6615 19.6368 10.9374 17.981 11.4894Z" fill="#2F3030"/>
</svg>
