<svg width="20" height="21" viewBox="0 0 20 21" fill="none" xmlns="http://www.w3.org/2000/svg">
<path d="M5.09646 16.6163L5.09647 16.6163L5.11824 16.6108L5.11825 16.6108L7.08392 16.1194C7.09904 16.1156 7.11405 16.1119 7.12894 16.1082C7.35167 16.0528 7.54885 16.0037 7.72788 15.9023C7.90691 15.801 8.05044 15.6571 8.21256 15.4947C8.2234 15.4838 8.23433 15.4729 8.24535 15.4618L14.1036 9.60355L14.1036 9.60355L14.114 9.59316L14.1212 9.58596C14.3605 9.34674 14.5668 9.14045 14.7175 8.95473C14.8774 8.75768 15.0114 8.54102 15.061 8.27208C15.0942 8.09221 15.0942 7.90779 15.061 7.72792C15.0114 7.45897 14.8774 7.24232 14.7175 7.04527C14.5668 6.85955 14.3605 6.65327 14.1212 6.41405L14.1036 6.39645L14.0861 6.37886C13.8468 6.13962 13.6405 5.93331 13.4548 5.7826C13.2578 5.6227 13.0411 5.4887 12.7722 5.4391C12.5923 5.40592 12.4079 5.40592 12.228 5.4391C11.9591 5.4887 11.7424 5.6227 11.5453 5.7826C11.3596 5.93331 11.1533 6.13961 10.9141 6.37886L10.8965 6.39645L5.03824 12.2547C5.02722 12.2658 5.01627 12.2767 5.00541 12.2875C4.84294 12.4496 4.69911 12.5932 4.59775 12.7722C4.49638 12.9512 4.44731 13.1484 4.39188 13.3711C4.38817 13.386 4.38443 13.401 4.38065 13.4162L3.88379 15.4036C3.88157 15.4125 3.87935 15.4214 3.87711 15.4303C3.83787 15.587 3.79596 15.7543 3.78221 15.8949C3.76707 16.0496 3.7706 16.3107 3.98001 16.5201C4.18942 16.7295 4.45047 16.733 4.6052 16.7179C4.74574 16.7041 4.91307 16.6622 5.06976 16.623C5.07869 16.6207 5.0876 16.6185 5.09646 16.6163Z" stroke="#2CA8B1"/>
<path d="M10.4167 6.74998L12.9167 5.08331L15.4167 7.58331L13.7501 10.0833L10.4167 6.74998Z" fill="#2CA8B1"/>
</svg>
