<svg width="32" height="32" viewBox="0 0 32 32" fill="none" xmlns="http://www.w3.org/2000/svg">
<circle cx="16" cy="16" r="16" fill="#34A853" fill-opacity="0.25"/>
<path d="M21.3387 17.1282L23.3213 19.1108C23.6961 19.4856 23.6961 20.0933 23.3213 20.4682C21.2948 22.4947 18.0864 22.7227 15.7937 21.0031L15.66 20.9029C13.9305 19.6058 12.3942 18.0695 11.0971 16.34L10.9969 16.2063C9.27727 13.9136 9.50528 10.7052 11.5318 8.6787C11.9067 8.30387 12.5144 8.30387 12.8892 8.6787L14.8718 10.6613C15.2624 11.0518 15.2624 11.685 14.8718 12.0755L13.4741 13.4733C13.2224 13.725 13.16 14.1095 13.3192 14.4278C14.2394 16.2683 15.7317 17.7606 17.5722 18.6808C17.8905 18.84 18.275 18.7776 18.5267 18.5259L19.9245 17.1282C20.315 16.7376 20.9482 16.7376 21.3387 17.1282Z" fill="#34A853"/>
</svg>
