<svg width="16" height="17" viewBox="0 0 16 17" fill="none" xmlns="http://www.w3.org/2000/svg">
<g clip-path="url(#clip0_190_1482)">
<path d="M8.66667 14.5V9.83333L5.33333 6.5L2 9.83333V14.5H5.33333M8.66667 14.5H5.33333M8.66667 14.5H14V3.16667C14 2.98986 13.9298 2.82029 13.8047 2.69526C13.6797 2.57024 13.5101 2.5 13.3333 2.5H6.66667C6.48986 2.5 6.32029 2.57024 6.19526 2.69526C6.07024 2.82029 6 2.98986 6 3.16667V7.16667M5.33333 14.5V11.8333" stroke="#2CA8B1" stroke-linecap="round" stroke-linejoin="round"/>
<path d="M8.66663 5.16666V5.17332" stroke="#2CA8B1" stroke-linecap="round" stroke-linejoin="round"/>
<path d="M11.3334 5.16666V5.17332" stroke="#2CA8B1" stroke-linecap="round" stroke-linejoin="round"/>
<path d="M11.3334 7.83334V7.84001" stroke="#2CA8B1" stroke-linecap="round" stroke-linejoin="round"/>
<path d="M11.3334 10.5V10.5067" stroke="#2CA8B1" stroke-linecap="round" stroke-linejoin="round"/>
</g>
<defs>
<clipPath id="clip0_190_1482">
<rect width="16" height="16" fill="white" transform="translate(0 0.5)"/>
</clipPath>
</defs>
</svg>
