<svg width="20" height="21" viewBox="0 0 20 21" fill="none" xmlns="http://www.w3.org/2000/svg">
<path d="M19 3.83324H1C0.447715 3.83324 0 4.28095 0 4.83324V16.1667C0 16.719 0.447715 17.1667 1 17.1667H19C19.5523 17.1667 20 16.719 20 16.1667V4.83324C20 4.28095 19.5523 3.83324 19 3.83324Z" fill="#D80027"/>
<path d="M19 3.83324H1C0.447715 3.83324 0 4.28095 0 4.83324V8.27757H20V4.83324C20 4.28095 19.5523 3.83324 19 3.83324Z" fill="black"/>
<path d="M20 12.722H0V16.1663C0 16.7186 0.447715 17.1663 1 17.1663H19C19.5523 17.1663 20 16.7186 20 16.1663V12.722Z" fill="#FFDA44"/>
</svg>
