<svg width="20" height="21" viewBox="0 0 20 21" fill="none" xmlns="http://www.w3.org/2000/svg">
<path d="M18.5021 3.94829H1.49785C0.670586 3.94829 0 4.61887 0 5.44614V15.5539C0 16.3811 0.670586 17.0518 1.49785 17.0518H18.5021C19.3294 17.0518 20 16.3812 20 15.5539V5.44614C20 4.61887 19.3294 3.94829 18.5021 3.94829Z" fill="#41479B"/>
<path d="M19.9793 5.19852C19.8612 4.48918 19.245 3.94824 18.5021 3.94824H18.1124L11.7241 8.13367V3.94828H8.27586V8.13371L1.88758 3.94828H1.49785C0.755 3.94828 0.138789 4.48918 0.0207422 5.19855L5.48082 8.7759H0V12.2242H5.48082L0.0207422 15.8014C0.138789 16.5108 0.755 17.0517 1.49785 17.0517H1.88758L8.27586 12.8663V17.0517H11.7241V12.8663L18.1124 17.0517H18.5021C19.245 17.0517 19.8612 16.5108 19.9793 15.8014L14.5192 12.2241H20V8.77582H14.5192L19.9793 5.19852Z" fill="#F5F5F5"/>
<path d="M11.0345 3.94829H8.96551V9.46551H0V11.5345H8.96551V17.0517H11.0345V11.5345H20V9.46551H11.0345V3.94829Z" fill="#FF4B55"/>
<path d="M0.968516 16.9552L8.25691 12.2242H6.9902L0.360352 16.5277C0.522578 16.7171 0.731055 16.8654 0.968516 16.9552Z" fill="#FF4B55"/>
<path d="M13.5309 12.2242H12.2642L19.3234 16.8064C19.5209 16.6767 19.6858 16.5014 19.8033 16.2956L13.5309 12.2242Z" fill="#FF4B55"/>
<path d="M0.158203 4.77637L6.31953 8.77587H7.58625L0.604531 4.24384C0.41707 4.38337 0.263672 4.56579 0.158203 4.77637Z" fill="#FF4B55"/>
<path d="M12.9908 8.77587L19.6328 4.46435C19.4688 4.27564 19.2587 4.12814 19.0196 4.04013L11.7241 8.77587H12.9908Z" fill="#FF4B55"/>
</svg>
