<svg width="24" height="24" viewBox="0 0 24 24" fill="none" xmlns="http://www.w3.org/2000/svg">
<path d="M19 12L19.5303 11.4697L20.0607 12L19.5303 12.5303L19 12ZM10 12.75C9.58579 12.75 9.25 12.4142 9.25 12C9.25 11.5858 9.58579 11.25 10 11.25V12.75ZM14.5303 6.46967L19.5303 11.4697L18.4697 12.5303L13.4697 7.53033L14.5303 6.46967ZM19.5303 12.5303L14.5303 17.5303L13.4697 16.4697L18.4697 11.4697L19.5303 12.5303ZM19 12.75H10V11.25H19V12.75Z" fill="#2CA8B1"/>
<path d="M12 5L7 5C5.89543 5 5 5.89543 5 7L4.99999 17C4.99999 18.1046 5.89542 19 6.99999 19L12 19" stroke="#2CA8B1" stroke-width="1.5"/>
</svg>
